<svg xmlns="http://www.w3.org/2000/svg" version="1.1" xmlns:xlink="http://www.w3.org/1999/xlink" viewBox="0 0 21.232938737849548 6.429628512758596"><g transform="matrix(0.7360898092135527,0,0,0.7360898092135527,7.488103294901089,2.4911505632575315)"><rect width="23.538152675400227" height="23.538152675400227" x="-7.519097551326112" y="-10.785957587700114" fill="#ffffff"></rect><g transform="matrix(1,0,0,1,0,0)" clip-path="url(#SvgjsClipPath14101)"><g clip-path="url(#SvgjsClipPath14096beb543b2-ff2f-4030-a80f-dc3c64e7f38d)"><path d=" M -0.7844615731193683 1.2272475150703774 C -0.5375627025333722 0.9738639372054092 -0.39959919504439423 0.633937064008643 -0.40007223100697775 0.28015455162953984 C -0.40005307370507737 -0.0803241440612702 -0.5432359534712008 -0.4260458291585886 -0.7981215954619216 -0.680954047779486 C -1.0530072374526425 -0.9358622664003801 -1.3987162392564643 -1.0790757667292754 -1.7591949352294804 -1.0790885376039585 C -2.164666436346001 -1.0794697972750764 -2.549036021822703 -0.89839670916329 -2.806929768386554 -0.5855099899494636 C -3.0648855609072325 -0.8983705112940124 -3.4492701237660297 -1.0794340117215206 -3.8547609095535567 -1.0790885376039585 C -4.605435228549 -1.0790619439985913 -5.213966625394223 -0.4705197677192069 -5.21397992178473 0.28015455162953984 C -5.213032903879726 0.6345941055942557 -5.074512763047933 0.9748217388431744 -4.827616265481784 1.2291255212516334 C -4.778619565751142 1.2779296049636797 -4.652383842563215 1.3906099758428498 -4.597006737216615 1.4323594978737233 L -2.7680935636369575 3.0453260376039566 L -0.9534821294381217 1.3822311790338866 C -0.9136828445955425 1.3496068408840405 -0.7842689571007648 1.2272475150703774 -0.7842689571007648 1.2272475150703774 Z" fill="#67a97b" transform="matrix(1,0,0,1,0,0)" fill-rule="nonzero"></path></g><g clip-path="url(#SvgjsClipPath14096beb543b2-ff2f-4030-a80f-dc3c64e7f38d)"><path d=" M -1.8506153130553957 0.6531554716423897 L -2.4768099895138374 0.6531554716423897 L -2.4768099895138374 0.027153411202543998 C -2.476778003784829 0.015561827169973785 -2.481360337992426 0.004434042443091757 -2.489545556020562 -0.0037737617275066526 C -2.497730774048698 -0.011981565898101731 -2.5088458895630397 -0.01659454615177669 -2.5204375177260285 -0.01659450202127255 L -3.093229403028487 -0.01659450202127255 C -3.104833781523705 -0.0166073121532615 -3.11596620669196 -0.01200151355150858 -3.1241694874936377 -0.003793715524720742 C -3.132372768295318 0.004414082502067096 -3.1369724376969104 0.015549041517833873 -3.1369532392499777 0.027153411202543998 L -3.1369532392499777 0.6531554716423897 L -3.7632442237177157 0.6531554716423897 C -3.7873867224934217 0.6532218738902618 -3.806911704430516 0.6728330588381164 -3.806871751929907 0.6969756158731837 L -3.806871751929907 1.2696471161640128 C -3.8068584847487124 1.2937403355446968 -3.7873374321115936 1.3132721613896756 -3.7632442237177157 1.3132987213785332 L -3.1369532392499777 1.3132987213785332 L -3.1369532392499777 1.9393007818183754 C -3.1369799239265705 1.9634910602799371 -3.117419565091624 1.9831375880965327 -3.09322940302849 1.9832172340584588 L -2.5204375177260285 1.9832172340584588 C -2.496279482461764 1.9830978686635772 -2.4767698950666426 1.9634590787029278 -2.4768099895138374 1.9393007818183718 L -2.4768099895138374 1.3132987213785297 L -1.8506153130553957 1.3132987213785297 C -1.839023722349875 1.3133243117221787 -1.8278984755700174 1.3087358460334355 -1.819695190162701 1.3005461123090643 C -1.8114919047553912 1.292356378584693 -1.8068850514457866 1.2812387333361046 -1.8068914768339015 1.2696471161640128 L -1.8068914768339015 0.6969756158731801 C -1.806865897564934 0.6853626559481456 -1.8114612080816062 0.6742165693710345 -1.8196637920623546 0.6659959180246882 C -1.8278663760431062 0.6577752666783383 -1.8390023249593566 0.653155443471354 -1.8506153130553926 0.6531554716423897 Z" fill="#a4c868" transform="matrix(1,0,0,1,0,0)" fill-rule="nonzero"></path></g><g clip-path="url(#SvgjsClipPath14096beb543b2-ff2f-4030-a80f-dc3c64e7f38d)"><path d=" M -2.5204375177260285 2.067583050203896 L -3.093205326026161 2.067583050203896 C -3.1639181369825042 2.0674503169593885 -3.221183048644698 2.0101100142154484 -3.221222747386112 1.9393970898276753 L -3.221222747386112 1.397664537523964 L -3.7632442237177157 1.397664537523964 C -3.8338561924743466 1.3975849011320272 -3.891074915340104 1.3403554066693457 -3.891141260066041 1.2697434241733194 L -3.891141260066041 0.6969756158731801 C -3.8911148324213976 0.6263197782710763 -3.8338999415421586 0.5690187203874968 -3.7632442237177224 0.5688859635062553 L -3.221222747386112 0.5688859635062553 L -3.221222747386112 0.027153411202543998 C -3.221143135143505 -0.043515655587818225 -3.1638743928165645 -0.10078439791477556 -3.093205326026185 -0.10086401015740354 L -2.5204375177260285 -0.10086401015740354 C -2.449798978618965 -0.1007577978566061 -2.3925802353348824 -0.04348519656867733 -2.3925404813777065 0.027153411202543998 L -2.3925404813777065 0.5688859635062553 L -1.8506153130553957 0.5688859635062553 C -1.7799274775761114 0.5689789102845026 -1.7226617467205116 0.6262877304785934 -1.7226219686977706 0.6969756158731837 L -1.7226219686977706 1.2696471161640128 C -1.7227148943188406 1.3402856669327317 -1.7799767210853679 1.3975151788986013 -1.8506153130553957 1.397568229514664 L -2.392540481377703 1.397568229514664 L -2.392540481377703 1.9393007818183754 C -2.392487168739499 2.0100208444616374 -2.4497176145811386 2.0674236711642404 -2.5204375177260423 2.067583050203896 Z M -3.0526837311138464 1.8990440339316306 L -2.5610794976499687 1.8990440339316306 L -2.5610794976499687 1.3132987213785297 C -2.5610794976499687 1.266757957159202 -2.5233507537331654 1.2290292132423952 -2.4768099895138374 1.2290292132423952 L -1.8911609849700395 1.2290292132423952 L -1.8911609849700395 0.7374249797785208 L -2.4768099895138374 0.7374249797785208 C -2.5233507537331654 0.7374249797785208 -2.5610794976499687 0.6996962358617176 -2.5610794976499687 0.6531554716423897 L -2.5610794976499687 0.06757869810556572 L -3.0526837311138464 0.06757869810556572 L -3.0526837311138464 0.6531554716423931 C -3.0526837311138464 0.6996962358617211 -3.0904124750306496 0.7374249797785242 -3.1369532392499777 0.7374249797785242 L -3.7226985518030755 0.7374249797785242 L -3.7226985518030755 1.2290292132423988 L -3.137049547259277 1.2290292132423988 C -3.0905087830399496 1.2290292132423988 -3.0527800391231428 1.2667579571592051 -3.0527800391231428 1.3132987213785332 Z M -1.8506153130553957 0.7374249797785242 L -1.8506153130553957 0.7374249797785242 Z" fill="#1c3423" transform="matrix(1,0,0,1,0,0)" fill-rule="nonzero"></path></g></g><g><path d=" M 0.384 0.5504999999999999 L 0.384 1.0739999999999998 L 0.0915 1.0739999999999998 L 0.0915 0.008999999999999897 L 0.3195 0.008999999999999897 L 0.747 0.5504999999999999 L 0.747 0.008999999999999897 L 1.0395 0.008999999999999897 L 1.0395 1.0739999999999998 L 0.807 1.0739999999999998 L 0.384 0.5504999999999999 M 1.69204248046875 1.0829999999999997 Q 1.56454248046875 1.0829999999999997 1.47304248046875 1.041 Q 1.38154248046875 0.9989999999999999 1.32379248046875 0.9254999999999999 Q 1.26604248046875 0.8519999999999999 1.2390424804687499 0.7567499999999998 Q 1.21204248046875 0.6614999999999998 1.21204248046875 0.5564999999999999 L 1.21204248046875 0.008999999999999897 L 1.50454248046875 0.008999999999999897 L 1.50454248046875 0.5564999999999999 Q 1.50454248046875 0.6089999999999998 1.51504248046875 0.6569999999999998 Q 1.5255424804687499 0.7049999999999998 1.54804248046875 0.7424999999999998 Q 1.57054248046875 0.7799999999999998 1.60579248046875 0.8017499999999999 Q 1.64104248046875 0.8234999999999999 1.69204248046875 0.8234999999999999 Q 1.74454248046875 0.8234999999999999 1.78054248046875 0.8017499999999999 Q 1.81654248046875 0.7799999999999998 1.83829248046875 0.7417499999999999 Q 1.86004248046875 0.7034999999999998 1.87054248046875 0.6554999999999999 Q 1.88104248046875 0.6074999999999998 1.88104248046875 0.5564999999999999 L 1.88104248046875 0.008999999999999897 L 2.17354248046875 0.008999999999999897 L 2.17354248046875 0.5564999999999999 Q 2.17354248046875 0.6674999999999998 2.14429248046875 0.7634999999999998 Q 2.11504248046875 0.8594999999999998 2.05654248046875 0.9314999999999998 Q 1.99804248046875 1.0034999999999998 1.90729248046875 1.0432499999999998 Q 1.81654248046875 1.0829999999999997 1.69204248046875 1.0829999999999997 M 2.346013916015625 1.0739999999999998 L 2.346013916015625 0.008999999999999897 L 2.835013916015625 0.008999999999999897 Q 2.913013916015625 0.008999999999999897 2.979013916015625 0.04049999999999976 Q 3.045013916015625 0.07199999999999984 3.093013916015625 0.12524999999999986 Q 3.141013916015625 0.17849999999999977 3.167263916015625 0.24449999999999983 Q 3.193513916015625 0.3104999999999998 3.193513916015625 0.3779999999999998 Q 3.193513916015625 0.4394999999999998 3.1755139160156247 0.49649999999999983 Q 3.157513916015625 0.5534999999999999 3.123013916015625 0.6007499999999999 Q 3.088513916015625 0.6479999999999999 3.040513916015625 0.6824999999999999 L 3.265513916015625 1.0739999999999998 L 2.944513916015625 1.0739999999999998 L 2.757013916015625 0.7469999999999999 L 2.638513916015625 0.7469999999999999 L 2.638513916015625 1.0739999999999998 L 2.346013916015625 1.0739999999999998 M 2.638513916015625 0.4919999999999999 L 2.8230139160156247 0.4919999999999999 Q 2.841013916015625 0.4919999999999999 2.857513916015625 0.4784999999999998 Q 2.874013916015625 0.46499999999999986 2.885263916015625 0.4394999999999998 Q 2.896513916015625 0.4139999999999998 2.896513916015625 0.3779999999999998 Q 2.896513916015625 0.3404999999999998 2.8837639160156248 0.31574999999999986 Q 2.8710139160156247 0.2909999999999998 2.852263916015625 0.27749999999999986 Q 2.833513916015625 0.2639999999999998 2.815513916015625 0.2639999999999998 L 2.638513916015625 0.2639999999999998 L 2.638513916015625 0.4919999999999999 M 4.00799560546875 0.3569999999999999 Q 4.00799560546875 0.3569999999999999 3.9824956054687495 0.34199999999999986 Q 3.95699560546875 0.32699999999999985 3.9149956054687496 0.3082499999999998 Q 3.8729956054687498 0.28949999999999987 3.8234956054687497 0.27449999999999986 Q 3.7739956054687496 0.25949999999999984 3.7259956054687495 0.25949999999999984 Q 3.6884956054687494 0.25949999999999984 3.6644956054687494 0.27149999999999985 Q 3.6404956054687494 0.28349999999999986 3.6404956054687494 0.31199999999999983 Q 3.6404956054687494 0.33899999999999986 3.6644956054687494 0.3554999999999998 Q 3.6884956054687494 0.3719999999999998 3.73274560546875 0.38549999999999984 Q 3.7769956054687497 0.3989999999999998 3.83849560546875 0.41849999999999987 Q 3.9374956054687495 0.4484999999999998 4.00949560546875 0.4874999999999998 Q 4.081495605468749 0.5264999999999999 4.12049560546875 0.5872499999999998 Q 4.1594956054687495 0.6479999999999999 4.1594956054687495 0.7484999999999998 Q 4.1594956054687495 0.8444999999999998 4.12499560546875 0.9097499999999998 Q 4.09049560546875 0.9749999999999999 4.03199560546875 1.0139999999999998 Q 3.9734956054687496 1.053 3.9014956054687495 1.07025 Q 3.8294956054687495 1.0875 3.7544956054687497 1.0875 Q 3.6779956054687495 1.0875 3.5947456054687494 1.0717499999999998 Q 3.51149560546875 1.0559999999999998 3.4334956054687495 1.0282499999999999 Q 3.3554956054687497 1.0005 3.2909956054687495 0.9629999999999999 L 3.41699560546875 0.7064999999999999 Q 3.41699560546875 0.7064999999999999 3.4469956054687496 0.7244999999999998 Q 3.4769956054687494 0.7424999999999998 3.5264956054687495 0.7649999999999999 Q 3.5759956054687496 0.7874999999999999 3.6367456054687497 0.8054999999999999 Q 3.69749560546875 0.8234999999999999 3.7589956054687494 0.8234999999999999 Q 3.8069956054687495 0.8234999999999999 3.8257456054687498 0.8107499999999999 Q 3.8444956054687496 0.7979999999999998 3.8444956054687496 0.7769999999999999 Q 3.8444956054687496 0.7454999999999998 3.8114956054687497 0.7282499999999998 Q 3.7784956054687497 0.7109999999999999 3.7252456054687495 0.6952499999999998 Q 3.6719956054687497 0.6794999999999998 3.6074956054687495 0.6584999999999999 Q 3.5144956054687495 0.6269999999999998 3.4544956054687495 0.5872499999999998 Q 3.39449560546875 0.5474999999999999 3.3659956054687497 0.4927499999999998 Q 3.3374956054687495 0.43799999999999983 3.3374956054687495 0.3599999999999999 Q 3.3374956054687495 0.24149999999999983 3.39299560546875 0.1619999999999998 Q 3.4484956054687497 0.0824999999999998 3.5392456054687496 0.04124999999999979 Q 3.6299956054687494 -2.220446049250313e-16 3.7349956054687494 -2.220446049250313e-16 Q 3.8129956054687497 -2.220446049250313e-16 3.88574560546875 0.018749999999999822 Q 3.95849560546875 0.03749999999999987 4.02224560546875 0.06449999999999978 Q 4.085995605468749 0.0914999999999998 4.1339956054687494 0.11549999999999983 L 4.00799560546875 0.3569999999999999 M 5.052002197265625 0.8189999999999998 L 5.052002197265625 1.0739999999999998 L 4.293002197265625 1.0739999999999998 L 4.293002197265625 0.008999999999999897 L 5.0385021972656245 0.008999999999999897 L 5.0385021972656245 0.2639999999999998 L 4.585502197265625 0.2639999999999998 L 4.585502197265625 0.4139999999999998 L 4.972502197265625 0.4139999999999998 L 4.972502197265625 0.6509999999999998 L 4.585502197265625 0.6509999999999998 L 4.585502197265625 0.8189999999999998 L 5.052002197265625 0.8189999999999998 M 5.4389794921875 0.008999999999999897 L 5.7659794921875 0.008999999999999897 L 6.1049794921875 1.0739999999999998 L 5.8079794921875 1.0739999999999998 L 5.7434794921875 0.8654999999999998 L 5.4599794921875 0.8654999999999998 L 5.3969794921875 1.0739999999999998 L 5.0984794921875 1.0739999999999998 L 5.4389794921875 0.008999999999999897 M 5.6969794921875 0.6704999999999999 L 5.6024794921875 0.2954999999999999 L 5.5034794921875 0.6704999999999999 L 5.6969794921875 0.6704999999999999 M 6.1979677734375 1.0739999999999998 L 6.1979677734375 0.008999999999999897 L 6.4904677734375005 0.008999999999999897 L 6.4904677734375005 0.8189999999999998 L 6.9734677734375 0.8189999999999998 L 6.9734677734375 1.0739999999999998 L 6.1979677734375 1.0739999999999998 M 7.839000732421876 0.8189999999999998 L 7.839000732421876 1.0739999999999998 L 7.080000732421875 1.0739999999999998 L 7.080000732421875 0.008999999999999897 L 7.825500732421875 0.008999999999999897 L 7.825500732421875 0.2639999999999998 L 7.372500732421876 0.2639999999999998 L 7.372500732421876 0.4139999999999998 L 7.759500732421875 0.4139999999999998 L 7.759500732421875 0.6509999999999998 L 7.372500732421876 0.6509999999999998 L 7.372500732421876 0.8189999999999998 L 7.839000732421876 0.8189999999999998 M 7.97997802734375 1.0739999999999998 L 7.97997802734375 0.008999999999999897 L 8.46897802734375 0.008999999999999897 Q 8.54697802734375 0.008999999999999897 8.61297802734375 0.04049999999999976 Q 8.678978027343751 0.07199999999999984 8.726978027343751 0.12524999999999986 Q 8.774978027343751 0.17849999999999977 8.80122802734375 0.24449999999999983 Q 8.827478027343751 0.3104999999999998 8.827478027343751 0.3779999999999998 Q 8.827478027343751 0.4394999999999998 8.80947802734375 0.49649999999999983 Q 8.79147802734375 0.5534999999999999 8.75697802734375 0.6007499999999999 Q 8.722478027343751 0.6479999999999999 8.674478027343751 0.6824999999999999 L 8.89947802734375 1.0739999999999998 L 8.57847802734375 1.0739999999999998 L 8.39097802734375 0.7469999999999999 L 8.27247802734375 0.7469999999999999 L 8.27247802734375 1.0739999999999998 L 7.97997802734375 1.0739999999999998 M 8.27247802734375 0.4919999999999999 L 8.45697802734375 0.4919999999999999 Q 8.47497802734375 0.4919999999999999 8.491478027343751 0.4784999999999998 Q 8.50797802734375 0.46499999999999986 8.51922802734375 0.4394999999999998 Q 8.53047802734375 0.4139999999999998 8.53047802734375 0.3779999999999998 Q 8.53047802734375 0.3404999999999998 8.51772802734375 0.31574999999999986 Q 8.50497802734375 0.2909999999999998 8.486228027343751 0.27749999999999986 Q 8.46747802734375 0.2639999999999998 8.449478027343751 0.2639999999999998 L 8.27247802734375 0.2639999999999998 L 8.27247802734375 0.4919999999999999 M 9.811445068359374 0.2639999999999998 L 9.505445068359375 0.2639999999999998 L 9.505445068359375 1.0739999999999998 L 9.212945068359375 1.0739999999999998 L 9.212945068359375 0.2639999999999998 L 8.905445068359375 0.2639999999999998 L 8.905445068359375 0.008999999999999897 L 9.811445068359374 0.008999999999999897 L 9.811445068359374 0.2639999999999998" fill="#1c3423" fill-rule="nonzero"></path></g><g><path d=" M 0.06675 1.9662374999999996 L 0.06675 1.4337374999999997 L 0.29175 1.4337374999999997 Q 0.32625 1.4337374999999997 0.35475 1.4479874999999995 Q 0.38325000000000004 1.4622374999999996 0.404625 1.4866124999999997 Q 0.426 1.5109874999999997 0.437625 1.5406124999999995 Q 0.44925 1.5702374999999997 0.44925 1.6009874999999996 Q 0.44925 1.6392374999999997 0.434625 1.6729874999999996 Q 0.42 1.7067374999999996 0.39337500000000003 1.7299874999999996 Q 0.36675 1.7532374999999996 0.33075 1.7607374999999996 L 0.46125 1.9662374999999996 L 0.402 1.9662374999999996 L 0.27675 1.7697374999999997 L 0.11925000000000001 1.7697374999999997 L 0.11925000000000001 1.9662374999999996 L 0.06675 1.9662374999999996 M 0.11925000000000001 1.7232374999999998 L 0.29325 1.7232374999999998 Q 0.32475 1.7232374999999998 0.34800000000000003 1.7059874999999995 Q 0.37125 1.6887374999999996 0.384 1.6606124999999996 Q 0.39675 1.6324874999999996 0.39675 1.6009874999999996 Q 0.39675 1.5687374999999997 0.382125 1.5413624999999995 Q 0.3675 1.5139874999999996 0.343125 1.4971124999999996 Q 0.31875000000000003 1.4802374999999997 0.28875 1.4802374999999997 L 0.11925000000000001 1.4802374999999997 L 0.11925000000000001 1.7232374999999998 M 0.9153863525390624 1.9197374999999997 L 0.9153863525390624 1.9662374999999996 L 0.5576363525390624 1.9662374999999996 L 0.5576363525390624 1.4337374999999997 L 0.9086363525390624 1.4337374999999997 L 0.9086363525390624 1.4802374999999997 L 0.6101363525390624 1.4802374999999997 L 0.6101363525390624 1.6722374999999996 L 0.8703863525390625 1.6722374999999996 L 0.8703863525390625 1.7164874999999997 L 0.6101363525390624 1.7164874999999997 L 0.6101363525390624 1.9197374999999997 L 0.9153863525390624 1.9197374999999997 M 1.0155179443359375 1.9662374999999996 L 1.0155179443359375 1.4337374999999997 L 1.0680179443359374 1.4337374999999997 L 1.0680179443359374 1.9197374999999997 L 1.3755179443359373 1.9197374999999997 L 1.3755179443359373 1.9662374999999996 L 1.0155179443359375 1.9662374999999996 M 1.4538988037109373 1.9662374999999996 L 1.4538988037109373 1.4337374999999997 L 1.5063988037109373 1.4337374999999997 L 1.5063988037109373 1.9662374999999996 L 1.4538988037109373 1.9662374999999996 M 1.8060131835937496 1.4337374999999997 L 1.8502631835937497 1.4337374999999997 L 2.07151318359375 1.9662374999999996 L 2.0160131835937496 1.9662374999999996 L 1.9470131835937496 1.7997374999999995 L 1.7077631835937497 1.7997374999999995 L 1.6395131835937498 1.9662374999999996 L 1.5832631835937496 1.9662374999999996 L 1.8060131835937496 1.4337374999999997 M 1.9350131835937496 1.7584874999999995 L 1.8277631835937498 1.4952374999999996 L 1.7190131835937497 1.7584874999999995 L 1.9350131835937496 1.7584874999999995 M 2.5496572265624997 1.8289874999999995 Q 2.5496572265624997 1.8687374999999997 2.5294072265625 1.8998624999999996 Q 2.5091572265625 1.9309874999999996 2.4750322265625 1.9486124999999996 Q 2.4409072265624996 1.9662374999999996 2.4004072265625 1.9662374999999996 L 2.1491572265624996 1.9662374999999996 L 2.1491572265624996 1.4337374999999997 L 2.4056572265624996 1.4337374999999997 Q 2.4431572265624997 1.4337374999999997 2.4705322265625 1.4536124999999998 Q 2.4979072265625 1.4734874999999996 2.5125322265624996 1.5046124999999997 Q 2.5271572265624997 1.5357374999999998 2.5271572265624997 1.5694874999999997 Q 2.5271572265624997 1.6092374999999997 2.5069072265625 1.6429874999999996 Q 2.4866572265624995 1.6767374999999998 2.4506572265625 1.6932374999999995 Q 2.4964072265625 1.7067374999999996 2.5230322265624996 1.7434874999999996 Q 2.5496572265624997 1.7802374999999997 2.5496572265624997 1.8289874999999995 M 2.4971572265625 1.8199874999999996 Q 2.4971572265625 1.7929874999999997 2.4851572265625 1.7701124999999998 Q 2.4731572265625 1.7472374999999996 2.4525322265624996 1.7329874999999997 Q 2.4319072265624997 1.7187374999999996 2.4056572265624996 1.7187374999999996 L 2.2016572265625 1.7187374999999996 L 2.2016572265625 1.9204874999999997 L 2.4004072265625 1.9204874999999997 Q 2.4274072265625 1.9204874999999997 2.4491572265625 1.9062374999999996 Q 2.4709072265625 1.8919874999999997 2.4840322265625 1.8691124999999997 Q 2.4971572265625 1.8462374999999995 2.4971572265625 1.8199874999999996 M 2.2016572265625 1.4794874999999996 L 2.2016572265625 1.6759874999999997 L 2.3846572265624997 1.6759874999999997 Q 2.4109072265625 1.6759874999999997 2.4311572265624997 1.6621124999999997 Q 2.4514072265625 1.6482374999999996 2.4634072265624996 1.6257374999999996 Q 2.4754072265625 1.6032374999999996 2.4754072265625 1.5777374999999996 Q 2.4754072265625 1.5507374999999997 2.4641572265624996 1.5286124999999997 Q 2.4529072265624996 1.5064874999999995 2.4334072265624997 1.4929874999999997 Q 2.4139072265625 1.4794874999999996 2.3891572265625 1.4794874999999996 L 2.2016572265625 1.4794874999999996 M 2.6497939453124997 1.9662374999999996 L 2.6497939453124997 1.4337374999999997 L 2.7022939453125 1.4337374999999997 L 2.7022939453125 1.9197374999999997 L 3.0097939453125 1.9197374999999997 L 3.0097939453125 1.9662374999999996 L 2.6497939453124997 1.9662374999999996 M 3.4459248046875 1.9197374999999997 L 3.4459248046875 1.9662374999999996 L 3.0881748046874997 1.9662374999999996 L 3.0881748046874997 1.4337374999999997 L 3.4391748046874997 1.4337374999999997 L 3.4391748046874997 1.4802374999999997 L 3.1406748046875 1.4802374999999997 L 3.1406748046875 1.6722374999999996 L 3.4009248046875 1.6722374999999996 L 3.4009248046875 1.7164874999999997 L 3.1406748046875 1.7164874999999997 L 3.1406748046875 1.9197374999999997 L 3.4459248046875 1.9197374999999997 M 3.8801806640625 1.4337374999999997 L 3.9244306640625 1.4337374999999997 L 4.1456806640625 1.9662374999999996 L 4.0901806640625 1.9662374999999996 L 4.0211806640625 1.7997374999999995 L 3.7819306640625 1.7997374999999995 L 3.7136806640624997 1.9662374999999996 L 3.6574306640625 1.9662374999999996 L 3.8801806640625 1.4337374999999997 M 4.0091806640625 1.7584874999999995 L 3.9019306640624998 1.4952374999999996 L 3.7931806640625 1.7584874999999995 L 4.0091806640625 1.7584874999999995 M 4.223324707031249 1.9662374999999996 L 4.223324707031249 1.4337374999999997 L 4.27582470703125 1.4337374999999997 L 4.27582470703125 1.9197374999999997 L 4.58332470703125 1.9197374999999997 L 4.58332470703125 1.9662374999999996 L 4.223324707031249 1.9662374999999996 M 5.01945556640625 1.9197374999999997 L 5.01945556640625 1.9662374999999996 L 4.6617055664062494 1.9662374999999996 L 4.6617055664062494 1.4337374999999997 L 5.012705566406249 1.4337374999999997 L 5.012705566406249 1.4802374999999997 L 4.71420556640625 1.4802374999999997 L 4.71420556640625 1.6722374999999996 L 4.97445556640625 1.6722374999999996 L 4.97445556640625 1.7164874999999997 L 4.71420556640625 1.7164874999999997 L 4.71420556640625 1.9197374999999997 L 5.01945556640625 1.9197374999999997 M 5.1195871582031245 1.9662374999999996 L 5.1195871582031245 1.4337374999999997 L 5.344587158203125 1.4337374999999997 Q 5.3790871582031246 1.4337374999999997 5.407587158203125 1.4479874999999995 Q 5.436087158203125 1.4622374999999996 5.457462158203125 1.4866124999999997 Q 5.478837158203125 1.5109874999999997 5.490462158203124 1.5406124999999995 Q 5.502087158203125 1.5702374999999997 5.502087158203125 1.6009874999999996 Q 5.502087158203125 1.6392374999999997 5.487462158203124 1.6729874999999996 Q 5.4728371582031246 1.7067374999999996 5.446212158203124 1.7299874999999996 Q 5.419587158203124 1.7532374999999996 5.383587158203125 1.7607374999999996 L 5.514087158203124 1.9662374999999996 L 5.454837158203125 1.9662374999999996 L 5.3295871582031245 1.7697374999999997 L 5.172087158203125 1.7697374999999997 L 5.172087158203125 1.9662374999999996 L 5.1195871582031245 1.9662374999999996 M 5.172087158203125 1.7232374999999998 L 5.346087158203124 1.7232374999999998 Q 5.3775871582031245 1.7232374999999998 5.4008371582031245 1.7059874999999995 Q 5.4240871582031245 1.6887374999999996 5.436837158203125 1.6606124999999996 Q 5.449587158203125 1.6324874999999996 5.449587158203125 1.6009874999999996 Q 5.449587158203125 1.5687374999999997 5.434962158203125 1.5413624999999995 Q 5.420337158203124 1.5139874999999996 5.395962158203124 1.4971124999999996 Q 5.371587158203124 1.4802374999999997 5.341587158203125 1.4802374999999997 L 5.172087158203125 1.4802374999999997 L 5.172087158203125 1.7232374999999998 M 5.983209228515625 1.4802374999999997 L 5.793459228515625 1.4802374999999997 L 5.793459228515625 1.9662374999999996 L 5.740959228515624 1.9662374999999996 L 5.740959228515624 1.4802374999999997 L 5.551209228515624 1.4802374999999997 L 5.551209228515624 1.4337374999999997 L 5.983209228515625 1.4337374999999997 L 5.983209228515625 1.4802374999999997 M 6.3750732421875 1.5334874999999997 Q 6.363823242187499 1.5207374999999996 6.3488232421875 1.5106124999999997 Q 6.3338232421875 1.5004874999999998 6.315073242187499 1.4929874999999997 Q 6.2963232421874995 1.4854874999999996 6.2749482421875 1.4809874999999997 Q 6.2535732421875 1.4764874999999997 6.2295732421875 1.4764874999999997 Q 6.1598232421875 1.4764874999999997 6.127198242187499 1.5031124999999996 Q 6.0945732421875 1.5297374999999995 6.0945732421875 1.5754874999999997 Q 6.0945732421875 1.6069874999999996 6.1099482421874995 1.6249874999999996 Q 6.1253232421875 1.6429874999999996 6.1583232421875 1.6542374999999996 Q 6.1913232421875 1.6654874999999996 6.2423232421875 1.6774874999999996 Q 6.2993232421875 1.6894874999999996 6.340573242187499 1.7059874999999995 Q 6.3818232421875 1.7224874999999997 6.4043232421875 1.7506124999999997 Q 6.4268232421875 1.7787374999999996 6.4268232421875 1.8267374999999997 Q 6.4268232421875 1.8634874999999997 6.4125732421874995 1.8904874999999997 Q 6.3983232421875 1.9174874999999996 6.3728232421875 1.9354874999999996 Q 6.3473232421875 1.9534874999999996 6.3120732421875 1.9621124999999997 Q 6.2768232421875 1.9707374999999996 6.2348232421875 1.9707374999999996 Q 6.1935732421875 1.9707374999999996 6.1556982421874995 1.9621124999999997 Q 6.1178232421875 1.9534874999999996 6.0840732421874995 1.9366124999999996 Q 6.0503232421875 1.9197374999999997 6.0210732421875 1.8934874999999995 L 6.0473232421875 1.8507374999999997 Q 6.0615732421874995 1.8657374999999996 6.081448242187499 1.8788624999999997 Q 6.1013232421875 1.8919874999999997 6.1256982421875 1.9024874999999997 Q 6.150073242187499 1.9129874999999996 6.1781982421874995 1.9186124999999996 Q 6.2063232421875 1.9242374999999996 6.2363232421875 1.9242374999999996 Q 6.3000732421875 1.9242374999999996 6.3356982421875 1.9009874999999996 Q 6.3713232421875 1.8777374999999996 6.3713232421875 1.8319874999999997 Q 6.3713232421875 1.7989874999999995 6.3533232421875 1.7791124999999997 Q 6.3353232421875 1.7592374999999996 6.2993232421875 1.7464874999999997 Q 6.2633232421875 1.7337374999999997 6.2108232421875 1.7217374999999997 Q 6.1553232421874995 1.7089874999999997 6.1170732421875 1.6932374999999995 Q 6.0788232421875 1.6774874999999996 6.059698242187499 1.6516124999999997 Q 6.0405732421875 1.6257374999999996 6.0405732421875 1.5829874999999995 Q 6.0405732421875 1.5334874999999997 6.0649482421875 1.4993624999999997 Q 6.0893232421875 1.4652374999999997 6.1320732421874995 1.4476124999999995 Q 6.174823242187499 1.4299874999999997 6.2303232421875 1.4299874999999997 Q 6.2655732421875 1.4299874999999997 6.2959482421874995 1.4371124999999996 Q 6.3263232421875 1.4442374999999996 6.3521982421875 1.4577374999999995 Q 6.3780732421875 1.4712374999999995 6.4005732421875 1.4914874999999996 L 6.3750732421875 1.5334874999999997 M 6.502194213867187 1.9662374999999996 L 6.502194213867187 1.8927374999999997 L 6.546444213867187 1.8927374999999997 L 6.546444213867187 1.9662374999999996 L 6.502194213867187 1.9662374999999996 M 6.85546728515625 1.9662374999999996 L 6.85546728515625 1.4337374999999997 L 7.08046728515625 1.4337374999999997 Q 7.11496728515625 1.4337374999999997 7.14346728515625 1.4479874999999995 Q 7.17196728515625 1.4622374999999996 7.19334228515625 1.4866124999999997 Q 7.21471728515625 1.5109874999999997 7.2263422851562495 1.5406124999999995 Q 7.23796728515625 1.5702374999999997 7.23796728515625 1.6009874999999996 Q 7.23796728515625 1.6392374999999997 7.223342285156249 1.6729874999999996 Q 7.20871728515625 1.7067374999999996 7.18209228515625 1.7299874999999996 Q 7.1554672851562495 1.7532374999999996 7.11946728515625 1.7607374999999996 L 7.2499672851562496 1.9662374999999996 L 7.19071728515625 1.9662374999999996 L 7.06546728515625 1.7697374999999997 L 6.90796728515625 1.7697374999999997 L 6.90796728515625 1.9662374999999996 L 6.85546728515625 1.9662374999999996 M 6.90796728515625 1.7232374999999998 L 7.081967285156249 1.7232374999999998 Q 7.11346728515625 1.7232374999999998 7.13671728515625 1.7059874999999995 Q 7.15996728515625 1.6887374999999996 7.17271728515625 1.6606124999999996 Q 7.18546728515625 1.6324874999999996 7.18546728515625 1.6009874999999996 Q 7.18546728515625 1.5687374999999997 7.17084228515625 1.5413624999999995 Q 7.1562172851562496 1.5139874999999996 7.1318422851562495 1.4971124999999996 Q 7.1074672851562495 1.4802374999999997 7.07746728515625 1.4802374999999997 L 6.90796728515625 1.4802374999999997 L 6.90796728515625 1.7232374999999998 M 7.7041036376953125 1.9197374999999997 L 7.7041036376953125 1.9662374999999996 L 7.346353637695312 1.9662374999999996 L 7.346353637695312 1.4337374999999997 L 7.697353637695312 1.4337374999999997 L 7.697353637695312 1.4802374999999997 L 7.3988536376953125 1.4802374999999997 L 7.3988536376953125 1.6722374999999996 L 7.6591036376953125 1.6722374999999996 L 7.6591036376953125 1.7164874999999997 L 7.3988536376953125 1.7164874999999997 L 7.3988536376953125 1.9197374999999997 L 7.7041036376953125 1.9197374999999997 M 8.112463989257812 1.5334874999999997 Q 8.101213989257813 1.5207374999999996 8.086213989257812 1.5106124999999997 Q 8.071213989257812 1.5004874999999998 8.052463989257813 1.4929874999999997 Q 8.033713989257812 1.4854874999999996 8.012338989257813 1.4809874999999997 Q 7.990963989257812 1.4764874999999997 7.966963989257812 1.4764874999999997 Q 7.897213989257812 1.4764874999999997 7.864588989257812 1.5031124999999996 Q 7.831963989257813 1.5297374999999995 7.831963989257813 1.5754874999999997 Q 7.831963989257813 1.6069874999999996 7.847338989257812 1.6249874999999996 Q 7.862713989257813 1.6429874999999996 7.895713989257812 1.6542374999999996 Q 7.928713989257813 1.6654874999999996 7.979713989257813 1.6774874999999996 Q 8.036713989257812 1.6894874999999996 8.077963989257812 1.7059874999999995 Q 8.119213989257812 1.7224874999999997 8.141713989257813 1.7506124999999997 Q 8.164213989257812 1.7787374999999996 8.164213989257812 1.8267374999999997 Q 8.164213989257812 1.8634874999999997 8.149963989257813 1.8904874999999997 Q 8.135713989257813 1.9174874999999996 8.110213989257812 1.9354874999999996 Q 8.084713989257812 1.9534874999999996 8.049463989257813 1.9621124999999997 Q 8.014213989257813 1.9707374999999996 7.9722139892578125 1.9707374999999996 Q 7.930963989257813 1.9707374999999996 7.893088989257812 1.9621124999999997 Q 7.855213989257813 1.9534874999999996 7.821463989257812 1.9366124999999996 Q 7.787713989257813 1.9197374999999997 7.758463989257812 1.8934874999999995 L 7.7847139892578125 1.8507374999999997 Q 7.798963989257812 1.8657374999999996 7.818838989257812 1.8788624999999997 Q 7.838713989257813 1.8919874999999997 7.863088989257813 1.9024874999999997 Q 7.887463989257812 1.9129874999999996 7.915588989257812 1.9186124999999996 Q 7.943713989257812 1.9242374999999996 7.973713989257813 1.9242374999999996 Q 8.037463989257812 1.9242374999999996 8.073088989257812 1.9009874999999996 Q 8.108713989257813 1.8777374999999996 8.108713989257813 1.8319874999999997 Q 8.108713989257813 1.7989874999999995 8.090713989257813 1.7791124999999997 Q 8.072713989257812 1.7592374999999996 8.036713989257812 1.7464874999999997 Q 8.000713989257813 1.7337374999999997 7.9482139892578125 1.7217374999999997 Q 7.892713989257812 1.7089874999999997 7.8544639892578125 1.6932374999999995 Q 7.816213989257813 1.6774874999999996 7.797088989257812 1.6516124999999997 Q 7.777963989257812 1.6257374999999996 7.777963989257812 1.5829874999999995 Q 7.777963989257812 1.5334874999999997 7.802338989257812 1.4993624999999997 Q 7.826713989257812 1.4652374999999997 7.869463989257812 1.4476124999999995 Q 7.912213989257812 1.4299874999999997 7.967713989257812 1.4299874999999997 Q 8.002963989257813 1.4299874999999997 8.033338989257812 1.4371124999999996 Q 8.063713989257812 1.4442374999999996 8.089588989257813 1.4577374999999995 Q 8.115463989257812 1.4712374999999995 8.137963989257813 1.4914874999999996 L 8.112463989257812 1.5334874999999997 M 8.2575849609375 1.9662374999999996 L 8.2575849609375 1.4337374999999997 L 8.4780849609375 1.4337374999999997 Q 8.512584960937499 1.4337374999999997 8.5414599609375 1.4479874999999995 Q 8.5703349609375 1.4622374999999996 8.591334960937498 1.4866124999999997 Q 8.612334960937499 1.5109874999999997 8.6243349609375 1.5406124999999995 Q 8.6363349609375 1.5702374999999997 8.6363349609375 1.6009874999999996 Q 8.6363349609375 1.6444874999999997 8.6172099609375 1.6831124999999996 Q 8.598084960937499 1.7217374999999997 8.563584960937499 1.7457374999999997 Q 8.5290849609375 1.7697374999999997 8.4825849609375 1.7697374999999997 L 8.310084960937498 1.7697374999999997 L 8.310084960937498 1.9662374999999996 L 8.2575849609375 1.9662374999999996 M 8.310084960937498 1.7232374999999998 L 8.4803349609375 1.7232374999999998 Q 8.511834960937499 1.7232374999999998 8.5350849609375 1.7059874999999995 Q 8.558334960937499 1.6887374999999996 8.5710849609375 1.6609874999999996 Q 8.5838349609375 1.6332374999999997 8.5838349609375 1.6009874999999996 Q 8.5838349609375 1.5679874999999996 8.5688349609375 1.5402374999999997 Q 8.553834960937499 1.5124874999999998 8.5294599609375 1.4963624999999996 Q 8.505084960937499 1.4802374999999997 8.4758349609375 1.4802374999999997 L 8.310084960937498 1.4802374999999997 L 8.310084960937498 1.7232374999999998 M 8.939716918945312 1.9699874999999996 Q 8.883466918945311 1.9699874999999996 8.837716918945311 1.9474874999999996 Q 8.791966918945311 1.9249874999999996 8.758966918945312 1.8863624999999997 Q 8.725966918945312 1.8477374999999996 8.707966918945312 1.7993624999999995 Q 8.689966918945311 1.7509874999999997 8.689966918945311 1.6999874999999998 Q 8.689966918945311 1.6467374999999995 8.708716918945312 1.5983624999999997 Q 8.727466918945312 1.5499874999999996 8.761591918945312 1.5121124999999997 Q 8.795716918945311 1.4742374999999996 8.841466918945311 1.4521124999999997 Q 8.887216918945311 1.4299874999999997 8.940466918945312 1.4299874999999997 Q 8.996716918945312 1.4299874999999997 9.042466918945312 1.4532374999999997 Q 9.088216918945312 1.4764874999999997 9.120841918945311 1.5154874999999997 Q 9.15346691894531 1.5544874999999996 9.171466918945312 1.6024874999999996 Q 9.189466918945312 1.6504874999999997 9.189466918945312 1.7007374999999996 Q 9.189466918945312 1.7539874999999996 9.170716918945311 1.8023624999999996 Q 9.15196691894531 1.8507374999999997 9.118216918945311 1.8886124999999996 Q 9.084466918945312 1.9264874999999997 9.038716918945312 1.9482374999999996 Q 8.992966918945312 1.9699874999999996 8.939716918945312 1.9699874999999996 M 8.742466918945311 1.6999874999999998 Q 8.742466918945311 1.7434874999999996 8.756716918945312 1.7836124999999996 Q 8.770966918945312 1.8237374999999996 8.797216918945312 1.8548624999999996 Q 8.82346691894531 1.8859874999999997 8.859841918945312 1.9043624999999997 Q 8.896216918945312 1.9227374999999995 8.939716918945312 1.9227374999999995 Q 8.985466918945312 1.9227374999999995 9.021841918945311 1.9036124999999997 Q 9.05821691894531 1.8844874999999996 9.084091918945312 1.8526124999999996 Q 9.109966918945311 1.8207374999999997 9.123466918945311 1.7809874999999997 Q 9.136966918945312 1.7412374999999995 9.136966918945312 1.6999874999999998 Q 9.136966918945312 1.6564874999999997 9.122716918945311 1.6167374999999997 Q 9.108466918945311 1.5769874999999995 9.081841918945312 1.5454874999999997 Q 9.055216918945312 1.5139874999999996 9.019216918945311 1.4959874999999996 Q 8.983216918945311 1.4779874999999996 8.939716918945312 1.4779874999999996 Q 8.894716918945312 1.4779874999999996 8.858341918945312 1.4967374999999996 Q 8.821966918945312 1.5154874999999997 8.796091918945312 1.5473624999999998 Q 8.770216918945312 1.5792374999999996 8.756341918945312 1.6189874999999996 Q 8.742466918945311 1.6587374999999995 8.742466918945311 1.6999874999999998 M 9.34207434082031 1.5304874999999996 L 9.34207434082031 1.9662374999999996 L 9.289574340820312 1.9662374999999996 L 9.289574340820312 1.4337374999999997 L 9.333074340820312 1.4337374999999997 L 9.682574340820311 1.8777374999999996 L 9.682574340820311 1.4344874999999995 L 9.735074340820312 1.4344874999999995 L 9.735074340820312 1.9662374999999996 L 9.686324340820311 1.9662374999999996 L 9.34207434082031 1.5304874999999996 M 10.180928833007812 1.5334874999999997 Q 10.169678833007811 1.5207374999999996 10.15467883300781 1.5106124999999997 Q 10.139678833007812 1.5004874999999998 10.120928833007811 1.4929874999999997 Q 10.102178833007812 1.4854874999999996 10.080803833007812 1.4809874999999997 Q 10.059428833007813 1.4764874999999997 10.035428833007812 1.4764874999999997 Q 9.965678833007813 1.4764874999999997 9.933053833007811 1.5031124999999996 Q 9.900428833007812 1.5297374999999995 9.900428833007812 1.5754874999999997 Q 9.900428833007812 1.6069874999999996 9.915803833007812 1.6249874999999996 Q 9.931178833007811 1.6429874999999996 9.964178833007812 1.6542374999999996 Q 9.997178833007812 1.6654874999999996 10.048178833007812 1.6774874999999996 Q 10.105178833007812 1.6894874999999996 10.146428833007812 1.7059874999999995 Q 10.187678833007812 1.7224874999999997 10.210178833007811 1.7506124999999997 Q 10.232678833007812 1.7787374999999996 10.232678833007812 1.8267374999999997 Q 10.232678833007812 1.8634874999999997 10.218428833007811 1.8904874999999997 Q 10.204178833007811 1.9174874999999996 10.178678833007812 1.9354874999999996 Q 10.153178833007813 1.9534874999999996 10.117928833007811 1.9621124999999997 Q 10.082678833007812 1.9707374999999996 10.040678833007812 1.9707374999999996 Q 9.999428833007812 1.9707374999999996 9.961553833007812 1.9621124999999997 Q 9.923678833007811 1.9534874999999996 9.889928833007811 1.9366124999999996 Q 9.856178833007812 1.9197374999999997 9.82692883300781 1.8934874999999995 L 9.853178833007812 1.8507374999999997 Q 9.867428833007812 1.8657374999999996 9.887303833007811 1.8788624999999997 Q 9.907178833007812 1.8919874999999997 9.931553833007811 1.9024874999999997 Q 9.955928833007812 1.9129874999999996 9.984053833007811 1.9186124999999996 Q 10.012178833007813 1.9242374999999996 10.042178833007812 1.9242374999999996 Q 10.105928833007813 1.9242374999999996 10.141553833007812 1.9009874999999996 Q 10.177178833007812 1.8777374999999996 10.177178833007812 1.8319874999999997 Q 10.177178833007812 1.7989874999999995 10.159178833007811 1.7791124999999997 Q 10.141178833007812 1.7592374999999996 10.105178833007812 1.7464874999999997 Q 10.069178833007811 1.7337374999999997 10.016678833007811 1.7217374999999997 Q 9.961178833007812 1.7089874999999997 9.922928833007811 1.6932374999999995 Q 9.884678833007811 1.6774874999999996 9.865553833007812 1.6516124999999997 Q 9.846428833007812 1.6257374999999996 9.846428833007812 1.5829874999999995 Q 9.846428833007812 1.5334874999999997 9.870803833007812 1.4993624999999997 Q 9.895178833007812 1.4652374999999997 9.937928833007811 1.4476124999999995 Q 9.980678833007811 1.4299874999999997 10.036178833007812 1.4299874999999997 Q 10.071428833007811 1.4299874999999997 10.101803833007812 1.4371124999999996 Q 10.132178833007812 1.4442374999999996 10.158053833007811 1.4577374999999995 Q 10.183928833007812 1.4712374999999995 10.206428833007811 1.4914874999999996 L 10.180928833007812 1.5334874999999997 M 10.3260498046875 1.9662374999999996 L 10.3260498046875 1.4337374999999997 L 10.378549804687498 1.4337374999999997 L 10.378549804687498 1.9662374999999996 L 10.3260498046875 1.9662374999999996 M 10.510914184570312 1.4337374999999997 L 10.701414184570313 1.9009874999999996 L 10.891164184570313 1.4337374999999997 L 10.945914184570311 1.4337374999999997 L 10.725414184570312 1.9662374999999996 L 10.677414184570312 1.9662374999999996 L 10.456164184570312 1.4337374999999997 L 10.510914184570312 1.4337374999999997 M 11.38130126953125 1.9197374999999997 L 11.38130126953125 1.9662374999999996 L 11.02355126953125 1.9662374999999996 L 11.02355126953125 1.4337374999999997 L 11.37455126953125 1.4337374999999997 L 11.37455126953125 1.4802374999999997 L 11.076051269531249 1.4802374999999997 L 11.076051269531249 1.6722374999999996 L 11.33630126953125 1.6722374999999996 L 11.33630126953125 1.7164874999999997 L 11.076051269531249 1.7164874999999997 L 11.076051269531249 1.9197374999999997 L 11.38130126953125 1.9197374999999997 M 11.638561523437499 1.6962374999999996 Q 11.638561523437499 1.6474874999999995 11.6554365234375 1.6006124999999995 Q 11.6723115234375 1.5537374999999995 11.7045615234375 1.5151124999999996 Q 11.736811523437499 1.4764874999999997 11.784061523437499 1.4536124999999998 Q 11.831311523437499 1.4307374999999998 11.8913115234375 1.4307374999999998 Q 11.962561523437499 1.4307374999999998 12.013186523437499 1.4633624999999997 Q 12.063811523437499 1.4959874999999996 12.0878115234375 1.5469874999999997 L 12.0465615234375 1.5724874999999996 Q 12.0293115234375 1.5372374999999996 12.0030615234375 1.5166124999999997 Q 11.9768115234375 1.4959874999999996 11.9471865234375 1.4869874999999997 Q 11.917561523437499 1.4779874999999996 11.8883115234375 1.4779874999999996 Q 11.8403115234375 1.4779874999999996 11.8035615234375 1.4971124999999996 Q 11.7668115234375 1.5162374999999997 11.7416865234375 1.5481124999999996 Q 11.7165615234375 1.5799874999999997 11.7038115234375 1.6193624999999996 Q 11.691061523437499 1.6587374999999995 11.691061523437499 1.6992374999999997 Q 11.691061523437499 1.7434874999999996 11.7060615234375 1.7839874999999996 Q 11.7210615234375 1.8244874999999996 11.7480615234375 1.8556124999999997 Q 11.775061523437499 1.8867374999999997 11.8114365234375 1.9051124999999995 Q 11.8478115234375 1.9234874999999996 11.8905615234375 1.9234874999999996 Q 11.920561523437499 1.9234874999999996 11.9520615234375 1.9129874999999996 Q 11.9835615234375 1.9024874999999997 12.010936523437499 1.8807374999999997 Q 12.0383115234375 1.8589874999999996 12.054811523437499 1.8244874999999996 L 12.0983115234375 1.8469874999999996 Q 12.0818115234375 1.8867374999999997 12.0473115234375 1.9144874999999997 Q 12.012811523437499 1.9422374999999996 11.970436523437499 1.9564874999999997 Q 11.9280615234375 1.9707374999999996 11.8875615234375 1.9707374999999996 Q 11.832811523437499 1.9707374999999996 11.7870615234375 1.9471124999999996 Q 11.7413115234375 1.9234874999999996 11.7079365234375 1.8841124999999996 Q 11.6745615234375 1.8447374999999997 11.6565615234375 1.7956124999999996 Q 11.638561523437499 1.7464874999999997 11.638561523437499 1.6962374999999996 M 12.346909790039062 1.4337374999999997 L 12.391159790039062 1.4337374999999997 L 12.612409790039061 1.9662374999999996 L 12.556909790039063 1.9662374999999996 L 12.487909790039062 1.7997374999999995 L 12.248659790039062 1.7997374999999995 L 12.180409790039063 1.9662374999999996 L 12.124159790039062 1.9662374999999996 L 12.346909790039062 1.4337374999999997 M 12.475909790039061 1.7584874999999995 L 12.368659790039063 1.4952374999999996 L 12.259909790039062 1.7584874999999995 L 12.475909790039061 1.7584874999999995 M 12.690053833007813 1.9662374999999996 L 12.690053833007813 1.4337374999999997 L 12.915053833007812 1.4337374999999997 Q 12.949553833007812 1.4337374999999997 12.978053833007811 1.4479874999999995 Q 13.006553833007812 1.4622374999999996 13.027928833007811 1.4866124999999997 Q 13.049303833007812 1.5109874999999997 13.060928833007813 1.5406124999999995 Q 13.072553833007811 1.5702374999999997 13.072553833007811 1.6009874999999996 Q 13.072553833007811 1.6392374999999997 13.057928833007812 1.6729874999999996 Q 13.043303833007812 1.7067374999999996 13.016678833007813 1.7299874999999996 Q 12.990053833007812 1.7532374999999996 12.954053833007812 1.7607374999999996 L 13.084553833007812 1.9662374999999996 L 13.025303833007811 1.9662374999999996 L 12.900053833007812 1.7697374999999997 L 12.742553833007811 1.7697374999999997 L 12.742553833007811 1.9662374999999996 L 12.690053833007813 1.9662374999999996 M 12.742553833007811 1.7232374999999998 L 12.916553833007812 1.7232374999999998 Q 12.948053833007812 1.7232374999999998 12.971303833007813 1.7059874999999995 Q 12.994553833007812 1.6887374999999996 13.007303833007812 1.6606124999999996 Q 13.020053833007813 1.6324874999999996 13.020053833007813 1.6009874999999996 Q 13.020053833007813 1.5687374999999997 13.005428833007812 1.5413624999999995 Q 12.990803833007812 1.5139874999999996 12.966428833007813 1.4971124999999996 Q 12.942053833007812 1.4802374999999997 12.912053833007812 1.4802374999999997 L 12.742553833007811 1.4802374999999997 L 12.742553833007811 1.7232374999999998 M 13.538690185546875 1.9197374999999997 L 13.538690185546875 1.9662374999999996 L 13.180940185546875 1.9662374999999996 L 13.180940185546875 1.4337374999999997 L 13.531940185546874 1.4337374999999997 L 13.531940185546874 1.4802374999999997 L 13.233440185546874 1.4802374999999997 L 13.233440185546874 1.6722374999999996 L 13.493690185546875 1.6722374999999996 L 13.493690185546875 1.7164874999999997 L 13.233440185546874 1.7164874999999997 L 13.233440185546874 1.9197374999999997 L 13.538690185546875 1.9197374999999997 M 13.62082177734375 1.9662374999999996 L 13.62082177734375 1.8927374999999997 L 13.66507177734375 1.8927374999999997 L 13.66507177734375 1.9662374999999996 L 13.62082177734375 1.9662374999999996" fill="#67a97b" fill-rule="nonzero"></path></g></g><defs><clipPath id="SvgjsClipPath14101"><path d=" M -5.213883613775433 -1.0790885376039585 h 4.813883613775433 v 4.124414575207917 h -4.813883613775433 Z"></path></clipPath><clipPath id="SvgjsClipPath14096beb543b2-ff2f-4030-a80f-dc3c64e7f38d"><path d=" M -5.213883613775433 -1.0790885376039585 L -0.40000000000000036 -1.0790885376039585 L -0.40000000000000036 3.0453260376039584 L -5.213883613775433 3.0453260376039584 Z"></path></clipPath></defs></svg>